<svg id="Capa_1" data-name="Capa 1" xmlns="http://www.w3.org/2000/svg" xmlns:xlink="http://www.w3.org/1999/xlink" viewBox="0 0 240.33 64.17"><defs><style>.cls-1{fill:url(#Degradado_sin_nombre_32);}.cls-2{fill:url(#Degradado_sin_nombre_53);}.cls-3{fill:url(#Degradado_sin_nombre_56);}.cls-4{fill:url(#Degradado_sin_nombre_72);}.cls-5{fill:url(#Degradado_sin_nombre_65);}</style><linearGradient id="Degradado_sin_nombre_32" x1="0.21" y1="22.81" x2="9.86" y2="22.81" gradientUnits="userSpaceOnUse"><stop offset="0" stop-color="#00fa6e"/><stop offset="0.99" stop-color="#00f771"/></linearGradient><linearGradient id="Degradado_sin_nombre_53" x1="0.59" y1="34.05" x2="240.33" y2="34.05" gradientUnits="userSpaceOnUse"><stop offset="0" stop-color="#1ffa60"/><stop offset="0.5" stop-color="#12ffe5"/><stop offset="1" stop-color="#077cfd"/></linearGradient><linearGradient id="Degradado_sin_nombre_56" x1="13.48" y1="22.9" x2="47.88" y2="22.9" gradientUnits="userSpaceOnUse"><stop offset="0" stop-color="#00fc7a"/><stop offset="1" stop-color="#00fd98"/></linearGradient><linearGradient id="Degradado_sin_nombre_72" x1="139.95" y1="42.97" x2="229.23" y2="42.97" gradientUnits="userSpaceOnUse"><stop offset="0" stop-color="#00e9e8"/><stop offset="1" stop-color="#0087f7"/></linearGradient><linearGradient id="Degradado_sin_nombre_65" x1="99.46" y1="42.91" x2="138.8" y2="42.91" gradientUnits="userSpaceOnUse"><stop offset="0" stop-color="#00ffcf"/><stop offset="1" stop-color="#00f0e8"/></linearGradient></defs><rect class="cls-1" x="0.21" y="4.07" width="9.65" height="37.47"/><path class="cls-2" d="M61.71,22.92a2.79,2.79,0,0,0,2.78,2.78H82.85c.3,0,.56,0,.81,0A19,19,0,0,1,83,63.62h-.18l-73,.55L.59,47.61H82.08a2.76,2.76,0,0,0,0-5.51H63.46A19.07,19.07,0,0,1,64.12,4l3,0H240.33L230.8,20.14H64.49A2.79,2.79,0,0,0,61.71,22.92Z"/><path class="cls-3" d="M47.88,10.62a20.31,20.31,0,0,0,0,24.55V45.79l-8.49-7.86-1.34-1.24-14-12.9-.93-.85v18.6H13.48V0l9.84,9.1L37.3,22l.92.86V4.07h9.66Z"/><path class="cls-4" d="M190.66,59.47l-8.19-13.8-.36-.62.69-.19a6.92,6.92,0,0,0,5-6.62v-5.8a9.78,9.78,0,0,0-9.77-9.76H150.3l.08.12,5.7,9.54h19.58a2.12,2.12,0,1,1,0,4.23l-22.56.06V63.25l9.65-5.13V46.64h9.94l-.27.61L180,60.83h11.46Zm32.89-27.13,5.68-9.66H191.68V60.83h15.14l5.67-9.66H201.34V46.58h13.85l5.67-9.65H201.34V32.34ZM140,22.68V60.83H150.3V22.68Z"/><path class="cls-5" d="M138.8,35a13.07,13.07,0,0,1-2.6,7.82,13.94,13.94,0,0,1-4.61,4h-19.2V58L102,63.26V51.54a19.13,19.13,0,0,0,0-13.76V36.6h24.25a2,2,0,1,0,0-3.93H105.71L99.46,22.56h30.93a14,14,0,0,1,5.81,4.59A13.08,13.08,0,0,1,138.8,35Z"/></svg>